<?xml version="1.0" standalone="no"?>
<!DOCTYPE svg PUBLIC "-//W3C//DTD SVG 20010904//EN"
 "http://www.w3.org/TR/2001/REC-SVG-20010904/DTD/svg10.dtd">
<svg version="1.0" xmlns="http://www.w3.org/2000/svg"
 width="1024.000000pt" height="1024.000000pt" viewBox="0 0 1024.000000 1024.000000"
 preserveAspectRatio="xMidYMid meet">
<metadata>
Created by potrace 1.14, written by Peter Selinger 2001-2017
</metadata>
<g transform="translate(0.000000,1024.000000) scale(0.100000,-0.100000)"
fill="#000000" stroke="none">
<path d="M0 5120 l0 -5120 5120 0 5120 0 0 5120 0 5120 -5120 0 -5120 0 0
-5120z m2977 3677 l28 -27 3 -375 c2 -328 1 -379 -13 -406 -27 -52 -61 -59
-281 -59 l-196 0 -121 -115 c-126 -119 -148 -131 -198 -105 -17 10 -19 22 -19
115 l0 105 -135 0 c-95 0 -146 4 -170 14 -64 27 -65 33 -65 444 0 362 0 370
21 396 12 15 31 32 43 36 11 5 258 8 548 7 l528 -2 27 -28z m-242 -1421 c150
-25 245 -54 340 -100 240 -120 366 -300 421 -606 14 -75 16 -395 20 -2642 4
-1902 2 -2558 -7 -2563 -32 -20 -285 -78 -434 -100 -576 -84 -1037 -39 -1282
125 -194 131 -307 335 -342 620 -8 57 -11 907 -11 2626 l0 2541 188 31 c225
38 444 69 572 82 128 12 424 4 535 -14z m4525 -1071 c469 -64 920 -255 1245
-527 307 -256 527 -575 673 -974 176 -478 208 -1109 86 -1664 -79 -357 -255
-721 -476 -985 -200 -239 -426 -415 -713 -555 -177 -87 -299 -132 -489 -180
-565 -143 -1227 -108 -1731 92 -306 122 -558 290 -785 525 -132 136 -209 234
-298 383 -199 330 -314 688 -353 1104 -16 170 -7 625 16 766 67 429 191 753
407 1067 239 347 597 626 1013 791 221 87 487 148 755 172 135 12 514 4 650
-15z"/>
<path d="M1917 8733 c-4 -3 -7 -163 -7 -354 l0 -349 183 -2 182 -3 3 -93 3
-93 102 96 101 95 213 0 213 0 -2 353 -3 352 -491 3 c-270 1 -494 -1 -497 -5z"/>
<path d="M2260 7140 c-136 -11 -553 -69 -563 -79 -4 -4 -6 -1116 -4 -2472 3
-2764 -4 -2529 77 -2695 74 -152 200 -241 405 -286 90 -20 128 -22 385 -22
289 0 377 7 613 50 l87 16 0 2443 c0 1650 -3 2468 -10 2519 -36 254 -157 405
-380 474 -146 45 -411 67 -610 52z"/>
<path d="M6720 6074 c-290 -24 -451 -55 -662 -124 -670 -221 -1147 -736 -1324
-1432 -49 -196 -65 -335 -71 -613 -8 -411 32 -685 147 -991 198 -528 579 -930
1090 -1148 449 -192 1085 -234 1606 -106 1050 257 1640 1132 1573 2335 -19
342 -73 582 -196 865 -189 435 -510 770 -938 980 -218 106 -475 182 -736 215
-117 15 -407 26 -489 19z m410 -1009 c290 -78 502 -290 611 -614 126 -371 111
-983 -31 -1325 -112 -269 -319 -456 -585 -528 -68 -18 -107 -22 -260 -22 -167
0 -186 2 -268 27 -148 46 -250 105 -355 209 -200 197 -296 453 -322 865 -27
419 46 798 197 1026 128 192 331 328 564 377 73 15 374 5 449 -15z"/>
<path d="M6715 4825 c-234 -51 -397 -207 -479 -457 -50 -155 -61 -252 -61
-538 1 -297 11 -381 69 -552 96 -282 290 -436 572 -455 260 -17 466 78 595
274 122 186 180 513 158 880 -21 334 -93 538 -244 690 -119 120 -261 173 -455
172 -52 0 -122 -7 -155 -14z"/>
</g>
</svg>
